<svg width="16" height="16" viewBox="0 0 16 16" fill="none" xmlns="http://www.w3.org/2000/svg">
<path d="M9 13.3333H7V10H9V13.3333Z" fill="currentColor"/>
<path d="M8 2.63411C8.7398 2.63411 9.3608 3.1665 10.6029 4.23112L11.2695 4.80273C11.9567 5.39177 12.3007 5.68623 12.4837 6.08399C12.6667 6.48181 12.6667 6.93467 12.6667 7.83989V10.6667C12.6667 11.9237 12.6665 12.5522 12.2761 12.9427C11.9217 13.2971 11.3714 13.3277 10.3333 13.3307V10C10.3333 9.26362 9.73638 8.66667 9 8.66667H7C6.26362 8.66667 5.66667 9.26362 5.66667 10V13.3307C4.62859 13.3277 4.07832 13.2971 3.72396 12.9427C3.33344 12.5522 3.33333 11.9237 3.33333 10.6667V7.83989C3.33333 6.93467 3.3333 6.48181 3.51629 6.08399C3.69929 5.68623 4.04313 5.39177 4.73047 4.80273L5.39707 4.23112C6.6392 3.1665 7.2602 2.63411 8 2.63411Z" fill="currentColor"/>
</svg>
