<svg width="16" height="16" viewBox="0 0 16 16" fill="none" xmlns="http://www.w3.org/2000/svg">
<path d="M7.81853 5.51449C8.50227 6.58338 9.4164 7.4916 10.4975 8.1688L5.90447 12.7625C5.62109 13.0459 5.47891 13.1876 5.30485 13.2807C5.13086 13.3738 4.93445 13.4132 4.54183 13.4917L2.4904 13.9019C2.26866 13.9462 2.15766 13.9682 2.09457 13.9051C2.03171 13.8421 2.05355 13.7313 2.09782 13.5099L2.50863 11.4585C2.58723 11.0655 2.62641 10.8689 2.71953 10.6948C2.81273 10.5208 2.95447 10.3792 3.23785 10.0958L7.81853 5.51449Z" fill="currentColor"/>
<path d="M10.7411 2.69092C11.1141 2.50607 11.5523 2.50609 11.9253 2.69092C12.1213 2.78741 12.3033 2.97000 12.6668 3.33347C13.0302 3.69685 13.2123 3.87837 13.3094 4.07438C13.4943 4.44737 13.4942 4.88562 13.3094 5.25862C13.2123 5.45469 13.0304 5.63666 12.6668 6.00016L11.4689 7.19741C10.3539 6.56319 9.4304 5.64561 8.78793 4.54509L10.0001 3.33347C10.3635 2.97014 10.5451 2.78810 10.7411 2.69092Z" fill="currentColor"/>
</svg>
