<svg width="16" height="16" viewBox="0 0 16 16" fill="none" xmlns="http://www.w3.org/2000/svg">
<path fill-rule="evenodd" clip-rule="evenodd" d="M8.4212 1.33333C8.71167 1.33333 8.85691 1.33352 8.97527 1.38021C9.1252 1.43956 9.2484 1.55133 9.32227 1.69466C9.38047 1.80751 9.395 1.95193 9.4238 2.24089C9.47847 2.78809 9.50597 3.06211 9.62047 3.21224C9.76573 3.40263 10.0022 3.50067 10.2396 3.46875C10.4267 3.44352 10.6394 3.26882 11.0651 2.92057C11.2902 2.73645 11.403 2.64475 11.5241 2.60612C11.6777 2.55713 11.8437 2.56551 11.9915 2.62956C12.1081 2.68007 12.2111 2.78275 12.4167 2.98828L13.0117 3.58333C13.2172 3.78888 13.3199 3.89191 13.3704 4.00847C13.4345 4.15637 13.4429 4.32238 13.3939 4.47592C13.3552 4.59689 13.2628 4.7094 13.0788 4.93425C12.7306 5.35964 12.5566 5.5727 12.5313 5.75977C12.4993 5.99717 12.5973 6.23352 12.7874 6.37857C12.9379 6.4934 13.2117 6.52075 13.7592 6.57555C14.0482 6.60446 14.1931 6.61947 14.306 6.67777C14.4492 6.75167 14.5605 6.87493 14.6199 7.02473C14.6666 7.14287 14.6667 7.2882 14.6667 7.57853V8.4212C14.6667 8.71167 14.6665 8.85691 14.6198 8.97527C14.5605 9.1252 14.4487 9.2484 14.3054 9.32227C14.1925 9.38047 14.0481 9.395 13.7592 9.4238C13.2121 9.47847 12.9385 9.506 12.7884 9.62047C12.5978 9.76573 12.4999 10.0021 12.5319 10.2396C12.5571 10.4266 12.7313 10.6396 13.0794 11.0651C13.2632 11.2896 13.3552 11.402 13.3939 11.5228C13.443 11.6764 13.4345 11.8429 13.3704 11.9909C13.3199 12.1074 13.2171 12.2107 13.0117 12.416L12.4167 13.0111C12.2111 13.2166 12.1081 13.3193 11.9915 13.3698C11.8436 13.4339 11.6777 13.4422 11.5241 13.3932C11.403 13.3546 11.2905 13.2629 11.0651 13.0788C10.6392 12.7304 10.4261 12.5557 10.2389 12.5306C10.0018 12.4989 9.76569 12.5968 9.62047 12.7871C9.50519 12.9379 9.47778 13.2111 9.4238 13.7585C9.39513 14.0476 9.38047 14.1924 9.32227 14.3053C9.2485 14.4486 9.1253 14.5605 8.97527 14.6199C8.85704 14.6666 8.71133 14.6667 8.4206 14.6667H7.57853C7.28853 14.6667 7.14287 14.6665 7.02473 14.6198C6.87493 14.5605 6.75167 14.4488 6.67777 14.306C6.61947 14.1931 6.60446 14.0486 6.57555 13.7592C6.52075 13.2117 6.4934 12.9379 6.37857 12.7874C6.23352 12.5973 5.99717 12.4993 5.75977 12.5313C5.5727 12.5566 5.35964 12.7306 4.93425 13.0788C4.7094 13.2628 4.59689 13.3552 4.47592 13.3939C4.32238 13.443 4.15637 13.4345 4.00847 13.3704C3.89191 13.3199 3.78888 13.2172 3.58333 13.0117L2.98828 12.4167C2.78275 12.2111 2.68007 12.1081 2.62956 11.9915C2.56551 11.8437 2.55713 11.6777 2.60612 11.5241C2.64475 11.403 2.73645 11.2902 2.92057 11.0651C3.26882 10.6394 3.44352 10.4267 3.46875 10.2396C3.50067 10.0022 3.40263 9.76573 3.21224 9.62047C3.06211 9.50597 2.78809 9.47847 2.24089 9.4238C1.95193 9.395 1.80751 9.38047 1.69466 9.32227C1.55133 9.2484 1.43956 9.1252 1.38021 8.97527C1.33352 8.85691 1.33333 8.71167 1.33333 8.4206V7.57853C1.33333 7.28853 1.33349 7.14287 1.38021 7.02473C1.43947 6.87493 1.55123 6.75167 1.69402 6.67777C1.8069 6.61947 1.9514 6.60446 2.24089 6.57555C2.78858 6.52073 3.06211 6.49347 3.21224 6.37857C3.40248 6.23367 3.50024 5.99763 3.46875 5.76042C3.44358 5.57325 3.26856 5.35994 2.92057 4.93425C2.73669 4.70952 2.64476 4.59687 2.60612 4.47592C2.55713 4.32236 2.56551 4.15637 2.62956 4.00847C2.68005 3.8919 2.78279 3.78888 2.98828 3.58333L3.58333 2.98828C3.78888 2.78278 3.89189 2.68005 4.00847 2.62956C4.15638 2.56549 4.32235 2.55713 4.47592 2.60612C4.59694 2.64475 4.70958 2.73655 4.93489 2.92057C5.36053 3.26871 5.57328 3.44296 5.76042 3.4681C5.99771 3.49961 6.23367 3.40192 6.37857 3.21159C6.49342 3.06146 6.52075 2.78787 6.57555 2.24089C6.60447 1.95129 6.61949 1.80656 6.67777 1.69402C6.75167 1.55122 6.87493 1.43947 7.02473 1.38021C7.14287 1.3335 7.28853 1.33333 7.57853 1.33333H8.4212ZM8 5.33333C6.52724 5.33333 5.33333 6.52724 5.33333 8C5.33333 9.47276 6.52724 10.6667 8 10.6667C9.47276 10.6667 10.6667 9.47276 10.6667 8C10.6667 6.52724 9.47276 5.33333 8 5.33333Z" fill="currentColor"/>
</svg>
