<svg width="16" height="16" viewBox="0 0 16 16" fill="none" xmlns="http://www.w3.org/2000/svg">
<path fill-rule="evenodd" clip-rule="evenodd" d="M7.33333 2C10.2789 2 12.6667 4.38781 12.6667 7.33333C12.6667 8.60287 12.2217 9.7678 11.4811 10.6836C11.5997 10.7105 11.7124 10.7697 11.8047 10.862L13.8047 12.862L13.8503 12.9127C14.0638 13.1746 14.0487 13.5606 13.8047 13.8047C13.5606 14.0487 13.1746 14.0638 12.9127 13.8503L12.862 13.8047L10.862 11.8047C10.7697 11.7124 10.7105 11.5997 10.6836 11.4811C9.7678 12.2217 8.60287 12.6667 7.33333 12.6667C4.38781 12.6667 2 10.2789 2 7.33333C2 4.38781 4.38781 2 7.33333 2ZM7.33333 3.33333C5.12419 3.33333 3.33333 5.12419 3.33333 7.33333C3.33333 9.54247 5.12419 11.3333 7.33333 11.3333C9.54247 11.3333 11.3333 9.54247 11.3333 7.33333C11.3333 5.12419 9.54247 3.33333 7.33333 3.33333Z" fill="currentColor"/>
</svg>
